<svg xmlns="http://www.w3.org/2000/svg" viewBox="0 0 512 512" role="img" aria-label="">
  <rect width="512" height="512" fill="none"/>
  <circle cx="154" cy="142" r="82" fill="#E9E3FF" opacity=".7"/>
  <circle cx="368" cy="340" r="100" fill="#D9F4EE" opacity=".58"/>
  <g fill="#FFFFFF" stroke="#D8D2F8" stroke-width="7">
    <ellipse cx="188" cy="246" rx="96" ry="48"/>
    <ellipse cx="268" cy="222" rx="76" ry="66"/>
    <ellipse cx="350" cy="252" rx="98" ry="44"/>
    <rect x="104" y="246" width="332" height="70" rx="35"/>
  </g>
  <g fill="#FFFFFF" stroke="#DCEEFF" stroke-width="6">
    <ellipse cx="134" cy="360" rx="48" ry="24"/>
    <ellipse cx="178" cy="348" rx="38" ry="34"/>
    <rect x="92" y="360" width="132" height="38" rx="19"/>
    <ellipse cx="360" cy="132" rx="42" ry="22"/>
    <ellipse cx="398" cy="120" rx="34" ry="30"/>
    <rect x="322" y="132" width="120" height="34" rx="17"/>
  </g>
  <path d="M86 104l10 7 11-7-7 12 7 11-11-7-10 7 7-11Z" fill="#FFDCE8"/>
  <path d="M420 244l12 8 12-8-8 13 8 13-12-8-12 8 8-13Z" fill="#FFE6C7"/>
</svg>
