<svg xmlns="http://www.w3.org/2000/svg" viewBox="0 0 1200 420" role="img" aria-label="">
  <defs>
    <linearGradient id="heroGlow" x1="0" y1="0" x2="1" y2="1">
      <stop offset="0" stop-color="#FFDCE8" stop-opacity=".55"/>
      <stop offset=".45" stop-color="#DCEEFF" stop-opacity=".62"/>
      <stop offset="1" stop-color="#FFF8EE" stop-opacity=".72"/>
    </linearGradient>
    <linearGradient id="cloud" x1="0" y1="0" x2="1" y2="1">
      <stop offset="0" stop-color="#FFFFFF"/>
      <stop offset="1" stop-color="#E9E3FF"/>
    </linearGradient>
  </defs>
  <rect width="1200" height="420" fill="none"/>
  <circle cx="965" cy="84" r="170" fill="url(#heroGlow)" opacity=".9"/>
  <circle cx="198" cy="325" r="118" fill="#D9F4EE" opacity=".45"/>
  <path d="M938 82a62 62 0 1 0 66 86 70 70 0 1 1-66-86Z" fill="#FFF8CC" opacity=".92"/>
  <g opacity=".88">
    <ellipse cx="874" cy="230" rx="88" ry="38" fill="url(#cloud)"/>
    <ellipse cx="950" cy="218" rx="72" ry="48" fill="url(#cloud)"/>
    <ellipse cx="1025" cy="234" rx="92" ry="36" fill="url(#cloud)"/>
    <rect x="820" y="225" width="270" height="48" rx="24" fill="url(#cloud)"/>
  </g>
  <g fill="#5F5AA2" opacity=".2">
    <circle cx="154" cy="86" r="6"/>
    <circle cx="228" cy="132" r="3"/>
    <circle cx="1108" cy="73" r="4"/>
    <circle cx="1026" cy="330" r="5"/>
    <circle cx="733" cy="76" r="3"/>
  </g>
  <g stroke="#5F5AA2" stroke-linecap="round" stroke-width="3" opacity=".16" fill="none">
    <path d="M96 262c74-50 132-42 190 0s114 45 180 5"/>
    <path d="M668 142c54-34 96-29 130 1"/>
  </g>
</svg>
